<svg id="圖層_1" data-name="圖層 1" xmlns="http://www.w3.org/2000/svg" viewBox="0 0 960 123"><defs><style>.cls-1,.cls-2{fill:#a70;}.cls-1{opacity:0.6;}</style></defs><title>index</title><polygon class="cls-1" points="377.65 127.98 579.77 89.56 704.5 108.82 751.07 132.78 363.31 149.77 371.92 129.56 377.65 127.98"/><polygon class="cls-2" points="645.53 127.42 844.5 92.82 915.29 114.51 956.31 138.85 684.95 138.21 645.53 127.42"/><polygon class="cls-2" points="277.49 125.91 180.5 98.82 63.5 103.82 29 122.82 8 134.77 243.31 134.27 277.49 125.91"/><polygon class="cls-2" points="332.5 134.32 396.8 92.83 492.91 101.65 557.03 152.32 395.06 152.32 332.5 134.32"/><polygon class="cls-1" points="195.98 135.15 291.38 96.83 446.32 115.58 517.45 139.88 498.7 147.31 169.52 146.84 195.98 135.15"/></svg>