<svg id="圖層_1" data-name="圖層 1" xmlns="http://www.w3.org/2000/svg" viewBox="0 0 960 123"><defs><style>.cls-1,.cls-2,.cls-3{fill:#e6af2e;}.cls-1{opacity:0.25;}.cls-3{opacity:0.3;}</style></defs><title>index</title><polygon class="cls-1" points="368.43 118.07 570.55 79.65 700.27 87.91 741.85 122.86 354.09 139.86 362.69 119.65 368.43 118.07"/><polygon class="cls-2" points="643.03 126.92 835.83 65.32 912.79 114.01 953.81 138.35 682.45 137.71 643.03 126.92"/><polygon class="cls-2" points="277.49 125.91 110.31 78.22 43.57 115.92 8 134.77 243.31 134.27 277.49 125.91"/><polygon class="cls-2" points="345.58 121.58 395.8 89.33 491.91 98.15 556.03 148.82 394.06 148.82 345.58 121.58"/><polygon class="cls-3" points="217.48 132.15 312.88 93.83 467.82 112.58 538.95 136.88 520.2 144.31 191.02 143.84 217.48 132.15"/></svg>