<svg id="圖層_1" data-name="圖層 1" xmlns="http://www.w3.org/2000/svg" viewBox="0 0 960 123"><defs><style>.cls-1,.cls-2{fill:#a70;}.cls-1{opacity:0.6;}</style></defs><title>index</title><polygon class="cls-1" points="376.15 124.48 578.27 86.06 703 105.32 749.57 129.28 361.81 146.27 370.42 126.06 376.15 124.48"/><polygon class="cls-2" points="645.53 127.42 844.5 92.82 915.29 114.51 956.31 138.85 684.95 138.21 645.53 127.42"/><polygon class="cls-2" points="277.49 125.91 180.5 98.82 63.5 103.82 29 122.82 8 134.77 243.31 134.27 277.49 125.91"/><polygon class="cls-2" points="345.58 121.58 395.8 89.33 491.91 98.15 556.03 148.82 394.06 148.82 345.58 121.58"/><polygon class="cls-1" points="217.48 132.15 312.88 93.83 467.82 112.58 538.95 136.88 520.2 144.31 191.02 143.84 217.48 132.15"/></svg>